<?xml version="1.0" encoding="utf-8"?>
<!-- Generator: Adobe Illustrator 24.2.1, SVG Export Plug-In . SVG Version: 6.00 Build 0)  -->
<svg version="1.1" id="Layer_1" xmlns="http://www.w3.org/2000/svg" xmlns:xlink="http://www.w3.org/1999/xlink" x="0px" y="0px"
	 viewBox="0 0 344 40" style="enable-background:new 0 0 344 40;" xml:space="preserve">
<style type="text/css">
	.st0{fill:#FFFFFF;filter:url(#Adobe_OpacityMaskFilter);}
	.st1{fill:#FFFFFF;}
	.st2{mask:url(#path-1-inside-1_8711_13338_1_);fill:url(#SVGID_1_);}
	.st3{fill:none;stroke:url(#SVGID_2_);}
	.st4{fill:none;stroke:url(#SVGID_3_);}
	.st5{fill:none;stroke:url(#SVGID_4_);stroke-linecap:round;stroke-linejoin:round;}
</style>
<defs>
	<filter id="Adobe_OpacityMaskFilter" filterUnits="userSpaceOnUse" x="-1.7" y="-2" width="12" height="44">
		<feColorMatrix  type="matrix" values="1 0 0 0 0  0 1 0 0 0  0 0 1 0 0  0 0 0 1 0"/>
	</filter>
</defs>
<mask maskUnits="userSpaceOnUse" x="-1.7" y="-2" width="12" height="44" id="path-1-inside-1_8711_13338_1_">
	<path class="st0" d="M8.3,1.2c-0.4,0-0.5,0.1-0.8,0.4L1.9,7C1.6,7.3,1.5,7.6,1.5,8v2.4H0.3V8c0-0.7,0.3-1.3,0.8-1.8l5.6-5.5
		C7.1,0.3,7.6,0,8.3,0V1.2z"/>
	<path class="st1" d="M2.9,40c-1.4,0-2.6-1.1-2.6-2.5V16.8h1.2v20.7c0,0.8,0.6,1.4,1.4,1.4h5.4V40H2.9z"/>
</mask>
<linearGradient id="SVGID_1_" gradientUnits="userSpaceOnUse" x1="4.251" y1="42" x2="4.251" y2="2" gradientTransform="matrix(1 0 0 -1 0 42)">
	<stop  offset="0" style="stop-color:#7D4CD4"/>
	<stop  offset="1" style="stop-color:#6253DA"/>
</linearGradient>
<path class="st2" d="M7.5,1.6L6.1,0.1l0,0L7.5,1.6z M8.3,1.2v2c1.1,0,2-0.9,2-2H8.3z M1.9,7L0.5,5.6h0L1.9,7z M1.5,10.4v2
	c1.1,0,2-0.9,2-2H1.5z M0.3,10.4h-2c0,1.1,0.9,2,2,2V10.4z M1,6.2l-1.4-1.4l0,0L1,6.2z M6.6,0.7L8,2.2L6.6,0.7z M8.3,0h2
	c0-1.1-0.9-2-2-2V0z M1.5,16.8h2c0-1.1-0.9-2-2-2V16.8z M0.3,16.8v-2c-1.1,0-2,0.9-2,2H0.3z M8.3,38.8h2c0-1.1-0.9-2-2-2V38.8z
	 M8.3,40v2c1.1,0,2-0.9,2-2H8.3z M7.5,1.6L8.9,3C9,2.9,9,2.9,9,2.9c0,0,0,0-0.1,0.1C8.8,3,8.7,3.1,8.5,3.1c-0.1,0-0.2,0-0.3,0v-2v-2
	c-0.5,0-1,0.1-1.5,0.4C6.4-0.2,6.1,0.1,6.1,0.1L7.5,1.6z M1.9,7l1.4,1.4L8.9,3L7.5,1.6L6.1,0.1L0.5,5.6L1.9,7z M1.5,8h2
	c0,0.2-0.1,0.4-0.2,0.5L1.9,7L0.5,5.6c-0.6,0.6-1,1.5-1,2.4H1.5z M1.5,10.4h2V8h-2h-2v2.4H1.5z M0.3,10.4v2h1.2v-2v-2H0.3V10.4z
	 M0.3,8h-2v2.4h2h2V8H0.3z M1,6.2l-1.4-1.4c-0.9,0.8-1.4,2-1.4,3.2h2h2c0-0.1,0-0.2,0.2-0.4L1,6.2z M6.6,0.7L5.3-0.7l-5.6,5.5L1,6.2
	l1.4,1.4L8,2.2L6.6,0.7z M8.3,0v-2C7.6-2,7-1.9,6.5-1.6C6-1.3,5.6-1,5.3-0.7l1.4,1.4L8,2.2C8.2,2,8.3,2,8.3,2c0,0,0,0,0,0
	c0,0,0,0,0,0V0z M8.3,0h-2v1.2h2h2V0H8.3z M0.3,37.5h-2c0,2.6,2.1,4.5,4.6,4.5v-2v-2c-0.4,0-0.6-0.3-0.6-0.5H0.3z M1.5,16.8v-2H0.3
	v2v2h1.2V16.8z M2.9,38.8v-2c0.3,0,0.6,0.2,0.6,0.6h-2h-2c0,1.9,1.6,3.4,3.4,3.4V38.8z M0.3,16.8h-2v20.7h2h2V16.8H0.3z M1.5,37.5h2
	V16.8h-2h-2v20.7H1.5z M8.3,38.8v-2H2.9v2v2h5.4V38.8z M2.9,40v2h5.4v-2v-2H2.9V40z M8.3,40h2v-1.2h-2h-2V40H8.3z"/>
<linearGradient id="SVGID_2_" gradientUnits="userSpaceOnUse" x1="19.3528" y1="41.4175" x2="335.251" y2="41.4175" gradientTransform="matrix(1 0 0 -1 0 42)">
	<stop  offset="0" style="stop-color:#794BCA"/>
	<stop  offset="0.5017" style="stop-color:#C34C52"/>
	<stop  offset="1" style="stop-color:#E69597"/>
</linearGradient>
<path class="st3" d="M334.8,0.5v0.2H8.8V0.5H334.8z"/>
<linearGradient id="SVGID_3_" gradientUnits="userSpaceOnUse" x1="335.2684" y1="2.5647" x2="8.2684" y2="2.5654" gradientTransform="matrix(1 0 0 -1 0 42)">
	<stop  offset="0" style="stop-color:#C7AAC6"/>
	<stop  offset="0.4757" style="stop-color:#4161BF"/>
	<stop  offset="1" style="stop-color:#6253DA"/>
</linearGradient>
<path class="st4" d="M334.8,39.3v0.2H8.8v-0.2H334.8z"/>
<linearGradient id="SVGID_4_" gradientUnits="userSpaceOnUse" x1="339.251" y1="42" x2="339.251" y2="2" gradientTransform="matrix(1 0 0 -1 0 42)">
	<stop  offset="0" style="stop-color:#E69597"/>
	<stop  offset="1" style="stop-color:#C7AAC6"/>
</linearGradient>
<path class="st5" d="M340.7,0.5c1.1,0,2,0.9,2,2V32c0,0.5-0.2,0.9-0.5,1.3l-0.1,0.1l-5.5,5.5c-0.3,0.3-0.6,0.4-0.9,0.5v-0.2
	c0.2-0.1,0.5-0.2,0.7-0.3l0.1-0.1l5.5-5.5c0.3-0.3,0.5-0.8,0.5-1.3V2.5c0-1-0.8-1.9-1.9-1.9h-5V0.5H340.7z"/>
</svg>
