<svg width="5" height="7" viewBox="0 0 5 7" fill="none" xmlns="http://www.w3.org/2000/svg">
<g clip-path="url(#clip0_826_792)">
<path d="M0.912186 6.88919C0.769329 6.83471 0.677153 6.71735 0.573731 6.61456C0.401257 6.44351 0.401415 6.24902 0.572939 6.07734C1.32429 5.32567 2.07564 4.57385 2.82857 3.82361C2.86753 3.78481 2.86341 3.7677 2.8273 3.73143C2.07469 2.98104 1.32334 2.22921 0.571989 1.47755C0.438951 1.34451 0.405217 1.18534 0.497234 1.04438C0.581334 0.915461 0.693307 0.80618 0.820644 0.719705C0.943229 0.636556 1.09448 0.655562 1.20946 0.750114C1.22657 0.764209 1.2432 0.779255 1.25888 0.794935C2.16369 1.69959 3.06851 2.60425 3.97317 3.50907C4.10827 3.64417 4.13662 3.80144 4.05378 3.94889C4.03272 3.98627 4.00326 4.01699 3.97317 4.04708C3.06851 4.9519 2.16354 5.85624 1.25951 6.76185C1.19822 6.8233 1.12758 6.86432 1.04586 6.88935C1.00135 6.88919 0.956849 6.88919 0.912186 6.88919Z" fill="white"/>
</g>
<defs>
<clipPath id="clip0_826_792">
<rect width="3.65601" height="6.22222" fill="white" transform="translate(0.444336 0.666992)"/>
</clipPath>
</defs>
</svg>
