<svg width="5" height="7" viewBox="0 0 5 7" fill="none" xmlns="http://www.w3.org/2000/svg">
<g clip-path="url(#clip0_826_936)">
<path d="M3.63274 6.88919C3.77559 6.83471 3.86777 6.71735 3.97119 6.61456C4.14366 6.44351 4.14351 6.24902 3.97198 6.07734C3.22063 5.32567 2.46929 4.57385 1.71635 3.82361C1.67739 3.78481 1.68151 3.7677 1.71762 3.73143C2.47024 2.98104 3.22158 2.22921 3.97293 1.47755C4.10597 1.34451 4.13971 1.18534 4.04769 1.04438C3.96359 0.915461 3.85161 0.80618 3.72428 0.719705C3.60169 0.636556 3.45044 0.655562 3.33546 0.750114C3.31835 0.764209 3.30172 0.779255 3.28604 0.794935C2.38123 1.69959 1.47641 2.60425 0.57175 3.50907C0.436653 3.64417 0.408304 3.80144 0.491136 3.94889C0.5122 3.98627 0.541658 4.01699 0.57175 4.04708C1.47641 4.9519 2.38139 5.85624 3.28541 6.76185C3.3467 6.8233 3.41734 6.86432 3.49906 6.88935C3.54357 6.88919 3.58807 6.88919 3.63274 6.88919Z" fill="white"/>
</g>
<defs>
<clipPath id="clip0_826_936">
<rect width="3.65601" height="6.22222" fill="white" transform="matrix(-1 0 0 1 4.10059 0.666992)"/>
</clipPath>
</defs>
</svg>
