<?xml version="1.0" encoding="utf-8"?>
<!-- Generator: Adobe Illustrator 24.2.1, SVG Export Plug-In . SVG Version: 6.00 Build 0)  -->
<svg version="1.1" id="Layer_1" xmlns="http://www.w3.org/2000/svg" xmlns:xlink="http://www.w3.org/1999/xlink" x="0px" y="0px"
	 viewBox="0 0 194 41" style="enable-background:new 0 0 194 41;" xml:space="preserve">
<style type="text/css">
	.st0{fill:none;stroke:url(#SVGID_1_);stroke-linecap:round;stroke-linejoin:round;}
	.st1{fill:none;stroke:url(#SVGID_2_);}
	.st2{fill:none;stroke:url(#SVGID_3_);}
	.st3{fill:none;stroke:url(#SVGID_4_);stroke-linecap:round;stroke-linejoin:round;}
</style>
<linearGradient id="SVGID_1_" gradientUnits="userSpaceOnUse" x1="4.541" y1="41.5" x2="4.541" y2="1.5" gradientTransform="matrix(1 0 0 -1 0 42)">
	<stop  offset="0" style="stop-color:#7D4CD4"/>
	<stop  offset="1" style="stop-color:#6253DA"/>
</linearGradient>
<path class="st0" d="M1.2,17.8V38c0,1,0.9,1.9,1.9,1.9H8V40H3.1C2,40,1,39.1,1,38V17.8H1.2z M8,1.3C8,1.3,7.9,1.3,7.9,1.3
	C7.8,1.4,7.7,1.5,7.6,1.5L7.4,1.7L1.8,7.2C1.4,7.5,1.2,8,1.2,8.5v1.9H1V8.5C1,8,1.2,7.6,1.5,7.2l0.1-0.1l5.6-5.5
	c0.2-0.2,0.4-0.4,0.6-0.5c0,0,0.1,0,0.2-0.1V1.3z"/>
<linearGradient id="SVGID_2_" gradientUnits="userSpaceOnUse" x1="14.5503" y1="40.9175" x2="185.541" y2="40.9175" gradientTransform="matrix(1 0 0 -1 0 42)">
	<stop  offset="0" style="stop-color:#794BCA"/>
	<stop  offset="0.5017" style="stop-color:#C34C52"/>
	<stop  offset="1" style="stop-color:#E69597"/>
</linearGradient>
<path class="st1" d="M185,1v0.2H9V1H185z"/>
<linearGradient id="SVGID_3_" gradientUnits="userSpaceOnUse" x1="185.5497" y1="2.0737" x2="8.5497" y2="2.0739" gradientTransform="matrix(1 0 0 -1 0 42)">
	<stop  offset="0" style="stop-color:#C7AAC6"/>
	<stop  offset="0.4757" style="stop-color:#4161BF"/>
	<stop  offset="1" style="stop-color:#6253DA"/>
</linearGradient>
<path class="st2" d="M185,39.8V40H9v-0.2H185z"/>
<linearGradient id="SVGID_4_" gradientUnits="userSpaceOnUse" x1="189.541" y1="41.5" x2="189.541" y2="1.5" gradientTransform="matrix(1 0 0 -1 0 42)">
	<stop  offset="0" style="stop-color:#E69597"/>
	<stop  offset="1" style="stop-color:#C7AAC6"/>
</linearGradient>
<path class="st3" d="M191,1c1.1,0,2,0.9,2,2v29.5c0,0.5-0.2,0.9-0.5,1.3l-0.1,0.1l-5.5,5.5c-0.3,0.3-0.6,0.4-0.9,0.5v-0.2
	c0.2-0.1,0.5-0.2,0.7-0.3l0.1-0.1l5.5-5.5c0.3-0.3,0.5-0.8,0.5-1.3V3c0-1-0.8-1.9-1.9-1.9h-5V1H191z"/>
</svg>
